<?xml version="1.0" encoding="UTF-8"?>
<svg width="1329px" height="823px" viewBox="0 0 1329 823" version="1.1" xmlns="http://www.w3.org/2000/svg" xmlns:xlink="http://www.w3.org/1999/xlink">
    <!-- Generator: Sketch 53.2 (72643) - https://sketchapp.com -->
    <title>Group</title>
    <desc>Created with Sketch.</desc>
    <g id="Page-1" stroke="none" stroke-width="1" fill="none" fill-rule="evenodd">
        <g id="home_idea1-copy-9" transform="translate(-55.000000, -93.000000)" stroke="#F70000" stroke-width="15">
            <g id="Group" transform="translate(63.000000, 101.000000)">
                <path d="M0.709272609,417 C0.709272609,392.595585 -0.886590762,368.138728 0.709272609,343.786756 C2.22655824,320.633835 7.25305604,297.843078 10.0276097,274.807446 C12.5036003,254.250623 14.8480013,233.667624 16.4590665,213.024659 C19.3794414,175.605195 14.7986429,78.4289352 25.4631062,46.5715432 C30.0421974,32.8926642 54.5128205,16.4938624 69.8197874,14.1755283 C118.738611,6.7664721 173.771519,-4.08063282 223.77315,1.57286614 C244.773641,3.94731382 272.800312,15.7893753 275.812658,39.275879 C279.395141,67.2075973 243.353576,89.0644772 229.267535,103.455563 C211.623467,121.481727 196.497554,126.599727 173.008293,142.698188 C93.4200366,197.244326 232.915413,110.693157 92.8915476,199.757164 C85.6547908,204.360198 77.9455223,208.279304 69.9885768,211.473383 C51.854169,218.752902 28.773665,217.483559 14.7595322,231.120939 C8.90736814,236.815775 27.2749192,241.644791 33.0178854,247.450163 C56.2325434,270.917084 60.3497827,285.223103 95.3244426,280.860923 C103.809949,279.802576 120.817133,259.956503 121.975701,258.682337 C136.074218,243.177123 149.798333,227.326535 163.253432,211.257604 C178.120203,193.502765 177.300177,190.350604 190.841763,178.161765 C225.347672,147.102848 263.621193,111.876642 313.918312,119.160778 C336.511079,122.432711 349.799662,127.383865 362,144.844315" id="Path"></path>
                <path d="M555.430255,35.2370846 C531.693064,35.2370846 518.683211,33.7195279 496.508461,38.3632561 C486.81874,40.3924302 470.232686,48.0359298 462.453278,52.5535082 C380.817968,99.9599312 411.083329,178.883053 442.543737,250.126377 C451.264125,269.874038 459.849815,289.733834 470.068822,308.742092 C478.386439,324.213593 487.601437,339.272894 498.052466,353.377521 C513.713001,374.512856 538.627093,377.685049 560.921342,367.14784 C572.52119,361.665259 571.996387,363.308135 571.996387,357.203582" id="Path-2"></path>
                <path d="M428,223.441202 C546.700722,223.441202 442.173995,226.774665 528.4533,217.158153 C562.96331,213.311739 570.272584,224.745497 561.758765,213" id="Path-3"></path>
                <path d="M0.398337645,824 C0.270192349,789.757871 -0.0729154803,755.515872 0.0139017565,721.273613 C0.0222422397,717.983979 0.110370246,714.666714 0.683752168,711.427448 C10.768492,654.454675 39.1987191,593.75475 59.7354345,541.578177 C72.7937573,508.40157 76.9531442,493.101551 115.973745,488.327316 C197.201285,478.388994 278.16681,526.667416 350.765052,552.968268 C367.329333,558.969167 385.038875,561.37742 401.662033,567.213164 C432.843802,578.15987 462.925969,592.065408 494.019843,603.259453 C518.32009,612.007737 532.449605,609.737313 549,626.19694" id="Path-4"></path>
                <path d="M17,656 C40.0674965,653.486699 83.7711667,649.768393 107.891669,643.624405 C136.72224,636.280666 164.62816,625.586025 193.515944,618.467839 C220.856702,611.730852 248.925095,608.269369 276.401641,602.102172 C427.255487,568.24255 235.185906,603.88315 419,572" id="Path-5"></path>
                <path d="M565,425 C564.908242,500.965136 580.084414,581.641316 605.977728,653.275066 C629.885001,719.414441 635.353129,755.754906 678.238854,798.338662 C681.3972,801.474768 685.54637,803.950563 689.908353,804.811898 C721.846907,811.118614 762.655652,790.709343 789,781.355179" id="Path-6"></path>
                <path d="M783,630 C783,556.613852 782.279849,539.13348 766.652002,470.827652 C762.951154,454.652071 762.765013,430.396599 752,416" id="Path-7"></path>
                <path d="M846,406 C929.270883,406 997.311243,398.365842 1084.00342,387.27429 C1109.35711,384.030494 1171.9736,375.712926 1194,356" id="Path-8"></path>
                <path d="M1043.1119,394 C1043.1119,447.605056 1042.86013,501.210839 1043.1119,554.815169 C1043.13977,560.748115 1042.92999,566.765836 1043.95072,572.589939 C1044.26938,574.408184 1045.98357,575.52998 1047,577" id="Path-9"></path>
                <path d="M1101,442.677623 C1113.98228,470.894679 1105.90679,454.628706 1140.97061,505.949729 C1156.17687,528.206321 1171.42533,550.444983 1187.35027,572.189362 C1200.78761,590.537098 1211.70165,585.534904 1229.24535,570.638288 C1235.13535,565.636998 1239.9227,559.37635 1244.33784,553.026284 C1248.75806,546.668891 1252.64282,539.864958 1255.61638,532.710143 C1265.42156,509.117509 1274.84138,485.310747 1282.59975,460.962735 C1283.37554,458.52808 1293.10854,419.821658 1291.89551,407.260461 C1291.81181,406.393746 1290.29762,407.939422 1289.49867,408.278902" id="Path-10"></path>
                <path d="M1204,586 C1221.85254,648.153191 1246.408,706.497017 1270,767" id="Path-11"></path>
                <path d="M1224,12.6383232 C1247.9507,3.84267657 1240.64929,5.05683169 1279.27633,5.05683169 C1297.61532,5.05683169 1307.53555,52.2275111 1304.43978,66.0773084 C1296.52091,101.504601 1262.51195,126.523394 1255.88219,162.688676 C1254.50201,170.217498 1253.58698,178.224648 1255.41384,185.655447 C1258.06064,196.421341 1295.98,201.855483 1301.77426,186.433486" id="Path-12"></path>
                <path d="M1295.0617,241.734061 C1290.98038,241.876197 1286.43108,240.273017 1282.81774,242.16047 C1265.23631,251.344229 1254.28039,288.152688 1281.20994,293.206859 C1288.36225,294.549213 1296.55018,296.461824 1303.04765,293.206859 C1313.07759,288.182277 1317.5725,247.042567 1306.69316,241.973551 C1302.06624,239.817728 1296.46925,241.919033 1291.35729,241.891774" id="Path-13"></path>
            </g>
        </g>
    </g>
</svg>